# xmcd
#
# Track frame offsets:
#	150
#	9043
#	20375
#	31472
#	41384
#	52079
#	59719
#	72754
#	83442
#	95786
#	107232
#	117530
#	126960
#	135499
#	148376
#	160103
#	173246
#	184373
#	194479
#	204788
#	216381
#	224988
#	234619
#	243713
#	253736
#	266319
#	276703
#	285053
#	294981
#	304344
#	313193
#	323525
#
# Disc length: 4435 seconds
#
# Revision: 0
# Processed by: cddbd v1.5.2PL0 Copyright (c) Steve Scherf et al.
# Submitted via: dBpowerAMP V4.0
#
DISCID=f4115120
DTITLE=Geroge Hamilton IV - A Rose And A Baby Ruth: 32 Biggest Hits
DYEAR=1900
DGENRE=Country
TTITLE0=A Rose And A Baby Ruth
TTITLE1=Why Don't They Understand
TTITLE2=If You Don't Know
TTITLE3=Abilene
TTITLE4=Now And For Always
TTITLE5=The Teen Commandments
TTITLE6=Only One Loce
TTITLE7=I Know Where I'm Going
TTITLE8=When Will I Know
TTITLE9=If Possessed Printing Press
TTITLE10=You're Cheating Heart
TTITLE11=Gee
TTITLE12=HIgh School Romance
TTITLE13=Little Tom
TTITLE14=Can You Blame Us
TTITLE15=Wrong Side Of The Tracks
TTITLE16=Everybody's Body
TTITLE17=Why I'm Walking
TTITLE18=Even Tho
TTITLE19=Before The Day Ends
TTITLE20=Tender Hearted Baby
TTITLE21=Loneliness All Around Me
TTITLE22=One Heart
TTITLE23=Lucy Lucy
TTITLE24=Tremble
TTITLE25=Who's Taking You To The Prom
TTITLE26=The Steady Game
TTITLE27=It's Just The Idea
TTITLE28=That's How It Goes
TTITLE29=One Little Acre
TTITLE30=Walk On The Wild Side Of Life
TTITLE31=The Two Of Us
EXTD=
EXTT0=
EXTT1=
EXTT2=
EXTT3=
EXTT4=
EXTT5=
EXTT6=
EXTT7=
EXTT8=
EXTT9=
EXTT10=
EXTT11=
EXTT12=
EXTT13=
EXTT14=
EXTT15=
EXTT16=
EXTT17=
EXTT18=
EXTT19=
EXTT20=
EXTT21=
EXTT22=
EXTT23=
EXTT24=
EXTT25=
EXTT26=
EXTT27=
EXTT28=
EXTT29=
EXTT30=
EXTT31=
PLAYORDER=
